<?xml version="1.0" standalone="no"?>
<!DOCTYPE svg PUBLIC "-//W3C//DTD SVG 20010904//EN"
 "http://www.w3.org/TR/2001/REC-SVG-20010904/DTD/svg10.dtd">
<svg version="1.0" xmlns="http://www.w3.org/2000/svg"
 width="200.000000pt" height="200.000000pt" viewBox="0 0 200.000000 200.000000"
 preserveAspectRatio="xMidYMid meet">
<metadata>
Created by potrace 1.15, written by Peter Selinger 2001-2017
</metadata>
<g transform="translate(0.000000,200.000000) scale(0.100000,-0.100000)"
fill="#000000" stroke="none">
<path d="M273 1348 c-21 -18 -40 -35 -43 -38 -3 -3 -33 -29 -68 -59 -67 -58
-80 -93 -34 -99 21 -3 22 -8 22 -91 0 -54 4 -91 12 -99 15 -15 324 -17 333 -2
4 6 9 50 12 99 6 84 7 89 30 94 14 2 33 -3 45 -13 l22 -17 -27 -32 c-67 -80
-7 -191 101 -191 31 0 41 -4 45 -20 3 -11 14 -20 25 -20 11 0 22 -9 25 -20 3
-11 11 -20 19 -20 7 0 18 -10 23 -22 6 -14 18 -22 30 -21 11 1 22 -2 25 -7 3
-4 22 -11 43 -15 34 -7 37 -5 37 16 0 16 -27 51 -87 111 -80 80 -87 91 -85
123 6 63 -55 125 -123 125 -13 0 -28 6 -32 13 -4 7 -32 30 -60 51 -50 35 -53
40 -53 81 0 55 -17 69 -74 62 -37 -5 -46 -3 -66 18 -31 33 -52 31 -97 -7z
m100 -33 c45 -38 57 -43 57 -20 0 9 9 15 25 15 23 0 25 -4 25 -44 0 -27 6 -48
16 -57 14 -11 12 -15 -17 -28 -50 -24 -74 -64 -72 -118 1 -26 9 -53 19 -64 17
-19 14 -19 -114 -19 l-131 0 -3 98 c-3 91 -4 97 -24 100 -20 3 -17 8 25 46 55
50 145 126 149 126 2 0 22 -16 45 -35z"/>
</g>
</svg>
